<?xml version="1.0" encoding="UTF-8" standalone="no"?>
<svg
   xmlns:dc="http://purl.org/dc/elements/1.1/"
   xmlns:cc="http://creativecommons.org/ns#"
   xmlns:rdf="http://www.w3.org/1999/02/22-rdf-syntax-ns#"
   xmlns:svg="http://www.w3.org/2000/svg"
   xmlns="http://www.w3.org/2000/svg"
   xmlns:sodipodi="http://sodipodi.sourceforge.net/DTD/sodipodi-0.dtd"
   xmlns:inkscape="http://www.inkscape.org/namespaces/inkscape"
   width="185.8394"
   height="36.02087"
   viewBox="0 0 49.17001 9.5305223"
   version="1.1"
   id="svg8"
   inkscape:version="1.0.1 (3bc2e813f5, 2020-09-07)"
   sodipodi:docname="logo2.svg">
  <defs
     id="defs2" />
  <sodipodi:namedview
     id="base"
     pagecolor="#ffffff"
     bordercolor="#666666"
     borderopacity="1.0"
     inkscape:pageopacity="0.0"
     inkscape:pageshadow="2"
     inkscape:zoom="5.6"
     inkscape:cx="119.67665"
     inkscape:cy="37.167705"
     inkscape:document-units="px"
     inkscape:current-layer="layer1"
     inkscape:document-rotation="0"
     showgrid="false"
     inkscape:window-width="1624"
     inkscape:window-height="1020"
     inkscape:window-x="209"
     inkscape:window-y="0"
     inkscape:window-maximized="0"
     units="px"
     fit-margin-top="0"
     fit-margin-left="0"
     fit-margin-right="0"
     fit-margin-bottom="0" />
  <metadata
     id="metadata5">
    <rdf:RDF>
      <cc:Work
         rdf:about="">
        <dc:format>image/svg+xml</dc:format>
        <dc:type
           rdf:resource="http://purl.org/dc/dcmitype/StillImage" />
        <dc:title />
      </cc:Work>
    </rdf:RDF>
  </metadata>
  <g
     inkscape:label="Layer 1"
     inkscape:groupmode="layer"
     id="layer1"
     transform="translate(-62.240394,-81.391963)">
    <g
       style="fill:#ffffff"
       id="g36"
       transform="matrix(0.26458333,0,0,0.26458333,69.068076,73.375951)">
      <g
         aria-label="Aarya exe"
         id="text40"
         style="font-style:normal;font-weight:normal;font-size:40px;line-height:1.25;font-family:sans-serif;fill:#ffffff;fill-opacity:1;stroke:none">
        <path
           d="m -5.6054142,58.296738 h 7 l -9.52,-28 h -8.1599998 l -9.52,28 h 7 l 1.4,-4.4 h 10.3999998 z m -9.8799998,-10.4 3.28,-10.28 3.2799998,10.28 z"
           style="font-style:normal;font-variant:normal;font-weight:normal;font-stretch:normal;font-family:Gilroy;-inkscape-font-specification:Gilroy;fill:#ffffff"
           id="path91" />
        <path
           d="m 17.51447,38.296738 v 1.88 c -1.32,-1.52 -3.28,-2.44 -5.96,-2.44 -5.2400002,0 -9.5600002,4.6 -9.5600002,10.56 0,5.96 4.32,10.56 9.5600002,10.56 2.68,0 4.64,-0.92 5.96,-2.44 v 1.88 h 6 v -20 z m -4.76,14.88 c -2.7600002,0 -4.7600002,-1.88 -4.7600002,-4.88 0,-3 2,-4.88 4.7600002,-4.88 2.76,0 4.76,1.88 4.76,4.88 0,3 -2,4.88 -4.76,4.88 z"
           style="font-style:normal;font-variant:normal;font-weight:normal;font-stretch:normal;font-family:Gilroy;-inkscape-font-specification:Gilroy;fill:#ffffff"
           id="path93" />
        <path
           d="m 33.914437,41.856738 v -3.56 h -6 v 20 h 6 v -9.04 c 0,-3.96 3.52,-4.96 6,-4.56 v -6.8 c -2.52,0 -5.2,1.28 -6,3.96 z"
           style="font-style:normal;font-variant:normal;font-weight:normal;font-stretch:normal;font-family:Gilroy;-inkscape-font-specification:Gilroy;fill:#ffffff"
           id="path95" />
        <path
           d="m 55.714328,38.296738 -3.76,12.24 -4.44,-12.24 h -6.6 l 7.96,19.08 c -0.88,2.44 -2.2,3.32 -5,3.32 v 5.6 c 5.6,0.28 9.16,-2.24 11.4,-8.6 l 6.84,-19.4 z"
           style="font-style:normal;font-variant:normal;font-weight:normal;font-stretch:normal;font-family:Gilroy;-inkscape-font-specification:Gilroy;fill:#ffffff"
           id="path97" />
        <path
           d="m 78.03426,38.296738 v 1.88 c -1.32,-1.52 -3.28,-2.44 -5.96,-2.44 -5.24,0 -9.56,4.6 -9.56,10.56 0,5.96 4.32,10.56 9.56,10.56 2.68,0 4.64,-0.92 5.96,-2.44 v 1.88 h 6 v -20 z m -4.76,14.88 c -2.76,0 -4.76,-1.88 -4.76,-4.88 0,-3 2,-4.88 4.76,-4.88 2.76,0 4.76,1.88 4.76,4.88 0,3 -2,4.88 -4.76,4.88 z"
           style="font-style:normal;font-variant:normal;font-weight:normal;font-stretch:normal;font-family:Gilroy;-inkscape-font-specification:Gilroy;fill:#ffffff"
           id="path99" />
        <path
           d="m 103.79415,50.696738 h 14.2 c 0.16,-0.76 0.24,-1.56 0.24,-2.4 0,-6.04 -4.32,-10.56 -10.16,-10.56 -6.32,0 -10.639998,4.6 -10.639998,10.56 0,5.96 4.239998,10.56 11.079998,10.56 3.8,0 6.76,-1.4 8.72,-4.12 l -4.8,-2.76 c -0.8,0.88 -2.2,1.52 -3.84,1.52 -2.2,0 -4.04,-0.72 -4.8,-2.8 z m -0.12,-4.48 c 0.56,-2.04 2.08,-3.16 4.36,-3.16 1.8,0 3.6,0.84 4.24,3.16 z"
           style="font-style:normal;font-variant:normal;font-weight:normal;font-stretch:normal;font-family:Gilroy;-inkscape-font-specification:Gilroy;fill:#ffffff"
           id="path101" />
        <path
           d="m 139.43412,58.296738 -7.16,-10.16 6.92,-9.84 h -6.88 l -3.48,4.96 -3.48,-4.96 h -6.88 l 6.92,9.84 -7.16,10.16 h 6.88 l 3.72,-5.28 3.72,5.28 z"
           style="font-style:normal;font-variant:normal;font-weight:normal;font-stretch:normal;font-family:Gilroy;-inkscape-font-specification:Gilroy;fill:#ffffff"
           id="path103" />
        <path
           d="m 145.594,50.696738 h 14.2 c 0.16,-0.76 0.24,-1.56 0.24,-2.4 0,-6.04 -4.32,-10.56 -10.16,-10.56 -6.32,0 -10.64,4.6 -10.64,10.56 0,5.96 4.24,10.56 11.08,10.56 3.8,0 6.76,-1.4 8.72,-4.12 l -4.8,-2.76 c -0.8,0.88 -2.2,1.52 -3.84,1.52 -2.2,0 -4.04,-0.72 -4.8,-2.8 z m -0.12,-4.48 c 0.56,-2.04 2.08,-3.16 4.36,-3.16 1.8,0 3.6,0.84 4.24,3.16 z"
           style="font-style:normal;font-variant:normal;font-weight:normal;font-stretch:normal;font-family:Gilroy;-inkscape-font-specification:Gilroy;fill:#ffffff"
           id="path105" />
      </g>
      <path
         fill="#cf000f"
         d="m 93.967748,57.184459 c -0.695656,0.639132 -1.533606,0.958698 -2.513848,0.958698 -0.980243,0 -1.818194,-0.319566 -2.513849,-0.958698 -0.695657,-0.639129 -1.043485,-1.408993 -1.043485,-2.309586 0,-0.900594 0.332019,-1.670455 0.996053,-2.309587 0.695657,-0.639131 1.549416,-0.958697 2.561281,-0.958697 0.980242,0 1.818192,0.319566 2.513848,0.958697 0.695657,0.639132 1.043486,1.408993 1.043486,2.309587 0,0.900593 -0.347829,1.670457 -1.043486,2.309586 z"
         id="path26-2"
         style="fill:#d40000;stroke-width:1.51545" />
    </g>
  </g>
</svg>
